<?xml version="1.0" encoding="UTF-8"?><!DOCTYPE svg PUBLIC "-//W3C//DTD SVG 1.1//EN" "http://www.w3.org/Graphics/SVG/1.1/DTD/svg11.dtd"><svg xmlns="http://www.w3.org/2000/svg"><symbol id="icon-diode" viewBox="0 -2.5 60 15"><path fill="none" stroke="#000" stroke-linejoin="bevel" d="M0 5h23.5M37.5 5H60"/><g fill="none" stroke="#000"><path d="M23.5 12V-2l14 7z"/><path stroke-linejoin="bevel" d="M37.5 12.5v-15"/></g></symbol><symbol id="icon-capacitor" viewBox="0 0 60 15"><path fill="none" stroke="#000" stroke-linejoin="bevel" d="M0 7.375h26.25M33.75 7.375H60M33.75 15V0M26.25 15V0"/></symbol><symbol id="icon-inductor" viewBox="0 0 50.007 10"><path fill="none" stroke="#000" stroke-linecap="square" d="M0 6.216h10c0-7.502 10.002-7.502 10.002 0 0-7.502 10.002-7.502 10.002 0 0-7.502 10.003-7.502 10.003 0h10"/></symbol><symbol id="icon-jFetP" viewBox="0 0 60 70"><g stroke="#000"><path fill="none" d="M35.018 44.232h11.058v25.802"/><path fill="none" d="M0 25.802h46.075V0"/><path fill="none" stroke-linecap="square" d="M60 35.018c0 11.762-9.534 21.296-21.297 21.296-11.762 0-21.297-9.534-21.297-21.296 0-11.763 9.535-21.297 21.297-21.297C50.466 13.72 60 23.256 60 35.02z"/><path d="M29.488 22.73v6.144l-5.836-3.072 5.836-3.072z"/><path fill="none" d="M35.018 20.273V49.76"/></g></symbol><symbol id="icon-opAmp" viewBox="0 0 140 100"><g fill="none" stroke="#000" stroke-linecap="round" stroke-linejoin="round"><path d="M25 75H0"/><path d="M25 25H0"/><path d="M25.02 75L25 5l90 45-90 45 .02-20"/><path d="M140 50h-25"/><path d="M65 100V75"/><path d="M65 25V0"/></g><path fill="none" stroke="#000" stroke-linecap="round" stroke-linejoin="round" d="M31.167 75h11"/><g fill="none" stroke="#000" stroke-linecap="round" stroke-linejoin="round"><path d="M31.167 25h11M36.667 30.5v-11"/></g></symbol><symbol id="icon-resistor" viewBox="0 0 60 10"><path fill="none" stroke="#000" stroke-linejoin="bevel" d="M0 5h15l2.5-5 5 10 5-10 5 10 5-10 5 10L45 5h15"/></symbol><symbol id="icon-tvsDiode" viewBox="0 -2.5 75 15"><path fill="none" stroke="#000" stroke-linejoin="bevel" d="M0 5h23.5M51.5 5H75"/><g fill="none" stroke="#000"><path d="M23.5 12V-2l14 7zM51.5 12V-2l-14 7zM40.5-2.5l-3 3v9l-3 3"/></g></symbol></svg>