<svg width="100" height="60" xmlns="http://www.w3.org/2000/svg">
 <defs>
  <pattern patternUnits="userSpaceOnUse" height="8" width="8" id="smallGrid">
   <path id="svg_1" stroke="#27AAE1" stroke-width="0.25" fill="none" d="m8,0l-8,0l0,8"/>
  </pattern>
  <pattern id="grid" width="100" height="60" patternUnits="userSpaceOnUse">
   <rect width="100" height="60" fill="url(#smallGrid)" id="svg_2"/>
   <path d="m80,0l-80,0l0,80" fill="none" stroke="#27AAE1" stroke-width="0.25" id="svg_3"/>
  </pattern>
 </defs>id="svg_5"/&gt;
 <g>
  <title>Layer 1</title>
  <g id="svg_6">
   <rect width="100%" height="100%" fill="url(#grid)" id="svg_4"/>
   <rect x="25" y="15" height="30" width="50" stroke="#747F8D" fill="#747F8D" id="svg_5"/>
  </g>
  <path id="svg_9" d="m75.5,23l12,0c9,0 9,0 9,9l0,-3c0,9 0,9 -9,9l-12,0l0,-15z" fill="rgb(0, 34, 133)"/>
  <path id="svg_12" fill="none" stroke="#fff" d="m79.5,31.5l0,-5l3,0l0,8l3,0l0,-8l3,0l0,8l3,0l0,-5"/>
  <path transform="rotate(180) translate(-24.5, -37.8)" id="svg_10" d="m0,0l12,0c9,0 9,0 9,9l0,-3c0,9 0,9 -9,9l-12,0l0,-15z" fill="rgb(0, 103, 133)"/>
  <path id="svg_11" fill="none" stroke="#fff" d="m8.5,29.5c0,-5 3,-5 3,0s3,5 3,0s3,-5 3,0s3,5 3,0"/>
  <text transform="matrix(0.4292084872722625,0,0,0.4288901388645172,18.984392266254872,21.93586162989959) " xml:space="preserve" text-anchor="middle" font-family="'Arimo', sans-serif" font-size="24" id="svg_7" y="27" x="32" stroke-width="0" stroke="#000000" fill="#ffffff">C1</text>
  <text id="svg_8" transform="matrix(0.4292084872722625,0,0,0.4288901388645172,18.984392266254872,21.93586162989959) " xml:space="preserve" text-anchor="middle" font-family="'Arimo', sans-serif" font-size="24" y="27" x="112" stroke-width="0" stroke="#000000" fill="#ffffff">C2</text>
 </g></svg>