<?xml version="1.0"?><svg width="640" height="480" xmlns="http://www.w3.org/2000/svg">
 <title>ekg blue</title>
 <g>
  <title>Layer 1</title>
  <path opacity="0.9" fill="#0000ff" fill-rule="evenodd" stroke="#ffffff" stroke-width="0.501308" stroke-linecap="round" stroke-linejoin="round" id="path634" d="m184.703461,297.552673l13.767731,0c12.462891,0 19.235641,-20.266388 28.434677,-20.1297c8.858398,0.131622 13.736618,20.935059 25.737595,20.935059l22.421692,0l15.847137,33.012878l17.364349,-119.168762l17.127838,141.220703l15.46521,-55.064819l31.750397,0c14.254608,-10.46756 35.702606,-27.376617 52.654541,-28.181915c17.776611,8.052032 16.671448,17.714355 29.952148,28.181915l13.767853,0l0,-5.636353l-13.767853,0c-13.280701,-10.467499 -8.579193,-17.714386 -29.952148,-28.181854c-21.447784,1.610413 -38.399933,17.714355 -52.654541,28.181854l-34.447784,0.805176l-10.070435,44.986877l-19.825226,-162.545166l-20.061859,141.713989l-9.55304,-24.960876l-26.01828,0c-12.000977,0 -16.879196,-22.413818 -25.737595,-22.545563c-9.199036,-0.136414 -15.971939,21.740295 -28.434677,21.740295l-13.767731,0l0,5.636261z"/>
 </g>
</svg>